<?xml version="1.0" encoding="utf-8"?>
<!-- Generator: Adobe Illustrator 15.0.0, SVG Export Plug-In . SVG Version: 6.00 Build 0)  -->
<svg version="1.2" baseProfile="tiny" id="Layer_1" xmlns="http://www.w3.org/2000/svg" xmlns:xlink="http://www.w3.org/1999/xlink"
	 x="0px" y="0px" width="500px" height="500px" viewBox="0 0 500 500" overflow="inherit" xml:space="preserve">
<g>
	<path fill="#EE4023" d="M250,20.545c-126.125,0-228.735,102.609-228.735,228.733c0,126.127,102.61,228.739,228.735,228.739
		c126.126,0,228.736-102.612,228.736-228.739C478.736,123.154,376.126,20.545,250,20.545z"/>
	<path fill="#FFFFFF" d="M250,10.545c-63.769,0-123.721,24.833-168.812,69.924C36.098,125.56,11.265,185.511,11.265,249.278
		c0,63.771,24.833,123.723,69.923,168.814c45.09,45.092,105.042,69.925,168.812,69.925c63.77,0,123.723-24.833,168.813-69.925
		c45.09-45.092,69.923-105.044,69.923-168.814c0-63.768-24.833-123.719-69.923-168.809C373.722,35.378,313.77,10.545,250,10.545z
		 M250,478.018c-126.125,0-228.735-102.612-228.735-228.739c0-126.124,102.61-228.733,228.735-228.733
		c126.126,0,228.736,102.609,228.736,228.733C478.736,375.405,376.126,478.018,250,478.018z"/>
</g>
<path fill="#FFFFFF" d="M301.356,230.238l-145.043,1.118l4.141-41.846l-59.557,59.558l59.576,59.574l-4.153-41.847l145.043,1.141
	L301.356,230.238z M339.528,189.916l4.53,41.473l-56.173-1.141l0.007,37.701l56.169-1.121l-4.514,42.222l59.555-59.556
	L339.528,189.916z"/>
</svg>
