<?xml version="1.0" encoding="utf-8"?>
<!-- Generator: Adobe Illustrator 19.1.0, SVG Export Plug-In . SVG Version: 6.00 Build 0)  -->
<svg version="1.1" id="Layer_1" xmlns="http://www.w3.org/2000/svg" xmlns:xlink="http://www.w3.org/1999/xlink" x="0px" y="0px"
	 viewBox="1.68 5.3 28.497 30.393" style="enable-background:new 1.68 5.3 28.497 30.393;" xml:space="preserve">
<path style="fill:#989898;" d="M25.048,6.085C24.002,7.238,13.22,18.437,13.22,18.437c-0.523,0.522-0.836,1.255-0.836,2.093
	c0,0.73,0.313,1.466,0.836,1.988c0,0,10.782,11.199,11.828,12.35c1.045,1.048,3.033,1.152,4.186,0c1.258-1.15,1.258-2.72,0-4.187
	L19.502,20.53l9.731-10.258c1.258-1.466,1.258-3.034,0-4.187C28.081,5.039,26.093,5.039,25.048,6.085"/>
<path style="fill:#989898;" d="M6.81,34.908c1.045-1.153,11.828-12.353,11.828-12.353c0.522-0.523,0.836-1.255,0.836-2.093
	c0-0.731-0.313-1.466-0.836-1.988c0,0-10.783-11.198-11.828-12.348c-1.045-1.048-3.034-1.153-4.187,0
	c-1.257,1.15-1.257,2.719,0,4.186l9.732,10.15l-9.731,10.26c-1.257,1.464-1.257,3.033,0,4.187
	C3.776,35.953,5.765,35.953,6.81,34.908"/>
</svg>
