<?xml version="1.0" encoding="utf-8"?>
<!-- Generator: Adobe Illustrator 19.1.0, SVG Export Plug-In . SVG Version: 6.00 Build 0)  -->
<svg version="1.1" id="Layer_1" xmlns="http://www.w3.org/2000/svg" xmlns:xlink="http://www.w3.org/1999/xlink" x="0px" y="0px"
	 viewBox="0 0 100 100" style="enable-background:new 0 0 100 100;" xml:space="preserve">
<style type="text/css">
	.st0{fill:#FFFFFF;}
	.st1{fill:#989898;}
	.st2{fill:none;stroke:#FFFFFF;stroke-width:4;}
	.st3{fill:none;stroke:#FFFFFF;stroke-width:4;stroke-linecap:round;}
</style>
<path class="st0" d="M95.1,50c0,24.9-20.2,45.1-45.1,45.1C25.1,95.1,4.9,74.9,4.9,50C4.9,25.1,25.1,4.9,50,4.9
	C74.9,4.9,95.1,25.1,95.1,50"/>
<path class="st1" d="M91.5,50c0,22.9-18.6,41.5-41.5,41.5C27.1,91.5,8.5,72.9,8.5,50S27.1,8.5,50,8.5C72.9,8.5,91.5,27.1,91.5,50"/>
<circle class="st2" cx="50" cy="50" r="41.5"/>
<line class="st3" x1="29.7" y1="59" x2="49.5" y2="54.9"/>
<line class="st3" x1="33.6" y1="38.9" x2="46.5" y2="54.5"/>
<line class="st3" x1="48.3" y1="51" x2="40.6" y2="69.7"/>
<line class="st3" x1="44.7" y1="54" x2="62" y2="64.5"/>
<line class="st3" x1="71.4" y1="34.7" x2="48.2" y2="54.3"/>
<line class="st3" x1="49.3" y1="42.5" x2="46.5" y2="57.3"/>
<g>
	<path class="st0" d="M30.6,57.3c-1.1-1.6-3.4-2.1-5-1c-1.7,1.1-2.1,3.4-1,5c1.1,1.7,3.4,2.1,5,1C31.3,61.1,31.7,58.9,30.6,57.3"/>
	<path class="st0" d="M42.3,70.8c-1.1-1.7-3.4-2.1-5-1c-1.6,1.1-2.1,3.4-1,5c1.1,1.6,3.4,2.1,5,1C42.9,74.7,43.4,72.4,42.3,70.8"/>
	<path class="st0" d="M50.7,43.8c1.9-0.5,3-2.5,2.5-4.5c-0.5-1.9-2.5-3-4.5-2.5c-1.9,0.5-3,2.5-2.5,4.5
		C46.8,43.3,48.8,44.4,50.7,43.8"/>
	<path class="st0" d="M74.5,39.7c3.5-0.9,5.6-4.4,4.7-7.9c-0.9-3.5-4.4-5.6-7.9-4.7c-3.5,0.9-5.6,4.4-4.7,7.9
		C67.5,38.4,71,40.5,74.5,39.7"/>
	<path class="st0" d="M68.1,73.4c3.4-1,5.4-4.6,4.4-8c-1-3.4-4.6-5.4-8-4.4c-3.4,1-5.4,4.6-4.4,8C61.1,72.4,64.7,74.4,68.1,73.4"/>
	<path class="st0" d="M32.4,41.6c3.4-1,5.4-4.6,4.4-8c-1-3.4-4.6-5.4-8-4.4c-3.4,1-5.4,4.6-4.4,8C25.4,40.6,29,42.6,32.4,41.6"/>
	<path class="st1" d="M46.8,61.8c3.9,0,7-3.1,7-7s-3.1-7-7-7s-7,3.1-7,7S43,61.8,46.8,61.8"/>
	<circle class="st2" cx="46.8" cy="54.9" r="7"/>
</g>
</svg>
