<?xml version="1.0" encoding="utf-8"?>
<!-- Generator: Adobe Illustrator 15.0.2, SVG Export Plug-In . SVG Version: 6.00 Build 0)  -->
<!DOCTYPE svg PUBLIC "-//W3C//DTD SVG 1.1//EN" "http://www.w3.org/Graphics/SVG/1.1/DTD/svg11.dtd">
<svg version="1.1" id="Layer_1" xmlns="http://www.w3.org/2000/svg" xmlns:xlink="http://www.w3.org/1999/xlink" x="0px" y="0px"
	 width="500px" height="500px" viewBox="0 0 500 500" enable-background="new 0 0 500 500" xml:space="preserve">
<g>
	<path fill="#FFFFFF" d="M250.002,2.703C113.424,2.703,2.702,113.419,2.702,250c0,136.575,110.721,247.297,247.3,247.297
		c136.58,0,247.296-110.722,247.296-247.297C497.298,113.419,386.582,2.703,250.002,2.703z M250.001,477.276
		c-125.523,0-227.28-101.759-227.28-227.276c0-125.522,101.757-227.279,227.28-227.279C375.522,22.72,477.28,124.478,477.28,250
		C477.28,375.517,375.522,477.276,250.001,477.276z"/>
	<path fill="#84B4D6" d="M250.001,22.72C124.478,22.72,22.721,124.478,22.721,250c0,125.518,101.757,227.276,227.28,227.276
		c125.521,0,227.278-101.759,227.278-227.276C477.28,124.478,375.522,22.72,250.001,22.72z M249.169,356.585
		C134.256,356.585,94.286,250,94.286,250s43.251-106.585,156.546-106.585C365.742,143.415,405.715,250,405.715,250
		S362.464,356.585,249.169,356.585z"/>
	<path fill="#FFFFFF" d="M250.832,143.415C137.537,143.415,94.286,250,94.286,250s39.968,106.585,154.882,106.585
		C362.464,356.585,405.715,250,405.715,250S365.742,143.415,250.832,143.415z M249.998,333.608
		c-46.177,0-83.608-37.437-83.608-83.61c0-46.175,37.432-83.609,83.608-83.609c46.175,0,83.61,37.434,83.61,83.609
		C333.609,296.172,296.174,333.608,249.998,333.608z"/>
	<path fill="#84B4D6" d="M249.998,166.389c-46.177,0-83.608,37.434-83.608,83.609c0,46.173,37.432,83.611,83.608,83.611
		c46.175,0,83.61-37.438,83.61-83.611C333.609,203.823,296.174,166.389,249.998,166.389z M249.998,297.101
		c-26.014,0-47.104-21.088-47.104-47.104c0-26.017,21.088-47.105,47.104-47.105c26.017,0,47.107,21.089,47.107,47.105
		C297.106,276.013,276.015,297.101,249.998,297.101z"/>
	<circle fill="#FFFFFF" cx="249.998" cy="249.998" r="47.105"/>
</g>
</svg>
