<?xml version="1.0" encoding="utf-8"?>
<!-- Generator: Adobe Illustrator 19.1.0, SVG Export Plug-In . SVG Version: 6.00 Build 0)  -->
<svg version="1.1" id="Layer_1" xmlns="http://www.w3.org/2000/svg" xmlns:xlink="http://www.w3.org/1999/xlink" x="0px" y="0px"
	 viewBox="-0.581 -4.805 31.924 31.924" style="enable-background:new -0.581 -4.805 31.924 31.924;" xml:space="preserve">
<path style="fill:#FFFFFF;" d="M31.343,11.157c0,8.815-7.146,15.962-15.961,15.962S-0.581,19.972-0.581,11.157
	c0-8.816,7.147-15.962,15.962-15.962S31.343,2.341,31.343,11.157"/>
<path style="fill:#989898;" d="M30.052,11.157c0,8.102-6.569,14.67-14.67,14.67c-8.103,0-14.67-6.568-14.67-14.67
	s6.568-14.67,14.67-14.67C23.482-3.513,30.052,3.056,30.052,11.157"/>
<circle style="fill:none;stroke:#FFFFFF;stroke-width:0.2796;" cx="15.382" cy="11.157" r="14.67"/>
<line style="fill:none;stroke:#FFFFFF;stroke-width:1.2193;stroke-linecap:round;" x1="8.205" y1="14.339" x2="15.216" y2="12.894"/>
<line style="fill:none;stroke:#FFFFFF;stroke-width:1.2193;stroke-linecap:round;" x1="9.573" y1="7.239" x2="14.141" y2="12.75"/>
<line style="fill:none;stroke:#FFFFFF;stroke-width:1.2193;stroke-linecap:round;" x1="14.795" y1="11.512" x2="12.072" y2="18.134"/>
<line style="fill:none;stroke:#FFFFFF;stroke-width:1.2193;stroke-linecap:round;" x1="13.496" y1="12.574" x2="19.608" y2="16.298"/>
<line style="fill:none;stroke:#FFFFFF;stroke-width:1.2193;stroke-linecap:round;" x1="22.96" y1="5.758" x2="14.748" y2="12.678"/>
<line style="fill:none;stroke:#FFFFFF;stroke-width:1.2193;stroke-linecap:round;" x1="15.141" y1="8.488" x2="14.142" y2="13.749"/>
<g>
	<path style="fill:#FFFFFF;" d="M8.519,13.724c-0.393-0.583-1.185-0.737-1.768-0.344c-0.583,0.395-0.737,1.186-0.343,1.769
		c0.393,0.583,1.184,0.737,1.768,0.344C8.758,15.099,8.913,14.307,8.519,13.724"/>
	<path style="fill:#FFFFFF;" d="M12.646,18.504c-0.394-0.583-1.186-0.738-1.769-0.344c-0.583,0.394-0.737,1.185-0.344,1.768
		c0.393,0.583,1.185,0.737,1.769,0.344C12.885,19.879,13.039,19.088,12.646,18.504"/>
	<path style="fill:#FFFFFF;" d="M15.63,8.977c0.676-0.194,1.067-0.899,0.873-1.576c-0.194-0.676-0.899-1.067-1.576-0.873
		c-0.676,0.194-1.066,0.899-0.872,1.575C14.247,8.78,14.953,9.171,15.63,8.977"/>
	<path style="fill:#FFFFFF;" d="M24.032,7.503c1.229-0.307,1.976-1.551,1.67-2.78c-0.307-1.229-1.55-1.976-2.779-1.669
		c-1.229,0.306-1.977,1.55-1.67,2.779S22.805,7.809,24.032,7.503"/>
	<path style="fill:#FFFFFF;" d="M21.779,19.421c1.218-0.349,1.921-1.619,1.571-2.835c-0.348-1.217-1.617-1.921-2.835-1.572
		c-1.217,0.349-1.921,1.619-1.572,2.835C19.293,19.067,20.562,19.771,21.779,19.421"/>
	<path style="fill:#FFFFFF;" d="M9.169,8.185c1.217-0.349,1.921-1.619,1.572-2.836c-0.349-1.217-1.619-1.92-2.836-1.572
		c-1.217,0.35-1.92,1.619-1.572,2.836C6.682,7.831,7.952,8.534,9.169,8.185"/>
	<path style="fill:#989898;" d="M14.265,15.346c1.365,0,2.474-1.106,2.474-2.473c0-1.366-1.108-2.473-2.474-2.473
		s-2.473,1.107-2.473,2.473S12.898,15.346,14.265,15.346"/>
	<circle style="fill:none;stroke:#FFFFFF;stroke-width:1.2193;" cx="14.265" cy="12.873" r="2.473"/>
</g>
</svg>
