<?xml version="1.0" encoding="utf-8"?>
<!-- Generator: Adobe Illustrator 19.1.0, SVG Export Plug-In . SVG Version: 6.00 Build 0)  -->
<svg version="1.1" id="Layer_1" xmlns="http://www.w3.org/2000/svg" xmlns:xlink="http://www.w3.org/1999/xlink" x="0px" y="0px"
	 viewBox="0 0 100 100" style="enable-background:new 0 0 100 100;" xml:space="preserve">
<style type="text/css">
	.st0{fill:#FFFFFF;}
	.st1{fill:#EF4223;}
	.st2{fill:none;stroke:#FFFFFF;stroke-width:0.642;}
	.st3{fill:none;stroke:#FFFFFF;stroke-width:2.5984;stroke-linejoin:round;stroke-miterlimit:10;}
	.st4{fill:none;stroke:#EF4223;stroke-width:6.236;stroke-linejoin:round;stroke-miterlimit:10;}
</style>
<g>
	<path class="st0" d="M94.7,51.2c0,24.1-19.5,43.6-43.6,43.6C27,94.8,7.5,75.3,7.5,51.2C7.5,27.1,27,7.6,51.1,7.6
		C75.1,7.6,94.7,27.1,94.7,51.2"/>
	<path class="st1" d="M91.1,51.2c0,22.1-17.9,40.1-40.1,40.1C28.9,91.3,11,73.3,11,51.2c0-22.1,17.9-40.1,40.1-40.1
		C73.2,11.1,91.1,29.1,91.1,51.2"/>
	<circle class="st2" cx="51.1" cy="51.2" r="40.1"/>
	<path class="st1" d="M68.1,70.3c-0.8,2.4-3.3,3.6-5.6,2.8l-19.3-6.9c-2.2-0.8-3.4-3.4-2.5-5.7L51,31.7c0.8-2.4,3.3-3.6,5.6-2.8
		l19.3,6.9c2.2,0.8,3.4,3.4,2.5,5.7L68.1,70.3z"/>
	<path class="st3" d="M68.1,70.3c-0.8,2.4-3.3,3.6-5.6,2.8l-19.3-6.9c-2.2-0.8-3.4-3.4-2.5-5.7L51,31.7c0.8-2.4,3.3-3.6,5.6-2.8
		l19.3,6.9c2.2,0.8,3.4,3.4,2.5,5.7L68.1,70.3z"/>
	<path class="st4" d="M63.7,61.1c0,2.5-1.9,4.5-4.3,4.5H38.9c-2.4,0-4.3-2-4.3-4.5V30.5c0-2.5,1.9-4.5,4.3-4.5h20.5
		c2.4,0,4.3,2,4.3,4.5V61.1z"/>
	<path class="st1" d="M63.7,61.1c0,2.5-1.9,4.5-4.3,4.5H38.9c-2.4,0-4.3-2-4.3-4.5V30.5c0-2.5,1.9-4.5,4.3-4.5h20.5
		c2.4,0,4.3,2,4.3,4.5V61.1z"/>
	<path class="st3" d="M63.7,61.1c0,2.5-1.9,4.5-4.3,4.5H38.9c-2.4,0-4.3-2-4.3-4.5V30.5c0-2.5,1.9-4.5,4.3-4.5h20.5
		c2.4,0,4.3,2,4.3,4.5V61.1z"/>
	<path class="st4" d="M63.3,61.3c1.1,2.3,0.2,4.9-2,5.9L42.8,76c-2.2,1-4.8,0-5.8-2.2L23.9,46.2c-1.1-2.3-0.2-4.9,2-5.9l18.5-8.8
		c2.1-1,4.8,0,5.8,2.2L63.3,61.3z"/>
	<path class="st1" d="M63.3,61.3c1.1,2.3,0.2,4.9-2,5.9L42.8,76c-2.2,1-4.8,0-5.8-2.2L23.9,46.2c-1.1-2.3-0.2-4.9,2-5.9l18.5-8.8
		c2.1-1,4.8,0,5.8,2.2L63.3,61.3z"/>
	<path class="st3" d="M63.3,61.3c1.1,2.3,0.2,4.9-2,5.9L42.8,76c-2.2,1-4.8,0-5.8-2.2L23.9,46.2c-1.1-2.3-0.2-4.9,2-5.9l18.5-8.8
		c2.1-1,4.8,0,5.8,2.2L63.3,61.3z"/>
	<path class="st0" d="M47.5,46c-2.1-0.6-4.5,0.5-5.3,2.6L41.6,50l-1.4-0.4c-2.1-0.6-4.5,0.5-5.3,2.6c-0.9,2.3,0.3,4.8,2.7,5.5
		l9.1,2.7l3.5-8.8C51.1,49.2,49.9,46.7,47.5,46"/>
</g>
</svg>
