<?xml version="1.0" encoding="utf-8"?>
<!-- Generator: Adobe Illustrator 15.0.0, SVG Export Plug-In . SVG Version: 6.00 Build 0)  -->
<!DOCTYPE svg PUBLIC "-//W3C//DTD SVG 1.1//EN" "http://www.w3.org/Graphics/SVG/1.1/DTD/svg11.dtd">
<svg version="1.1" id="Layer_1" xmlns="http://www.w3.org/2000/svg" xmlns:xlink="http://www.w3.org/1999/xlink" x="0px" y="0px"
	 width="4251.971px" height="4251.969px" viewBox="0 0 4251.971 4251.969" enable-background="new 0 0 4251.971 4251.969"
	 xml:space="preserve">
<path fill="#808285" stroke="#000000" stroke-miterlimit="10" d="M854.709,110.551
	c144.566,161.575,1658.269,1726.299,1658.269,1726.299c76.535,76.536,119.055,178.583,119.055,289.135
	c0,102.046-42.52,204.093-119.055,280.63c0,0-1505.198,1564.725-1658.269,1726.299c-144.567,144.566-425.197,161.576-586.771,0
	c-178.583-161.574-178.583-382.678,0-586.771l1360.63-1420.158L276.441,697.323c-178.583-204.095-178.583-425.197,0-586.772
	C429.512-34.016,710.142-34.016,854.709,110.551"/>
<path fill="#808285" d="M3405.262,111.569c144.567-144.567,425.197-144.567,578.268,0c178.583,161.575,178.583,382.677,0,586.772
	L2631.403,2127.002l1360.63,1420.159c178.583,204.094,178.583,425.197,0,586.771c-161.574,161.576-442.204,144.566-586.771,0
	c-153.07-161.574-1658.269-1726.299-1658.269-1726.299c-76.535-76.537-119.055-178.584-119.055-280.632
	c0-110.551,42.52-212.598,119.055-289.134C1746.993,1837.868,3260.695,273.144,3405.262,111.569"/>
</svg>
