<?xml version="1.0" encoding="utf-8"?>
<!-- Generator: Adobe Illustrator 15.0.2, SVG Export Plug-In . SVG Version: 6.00 Build 0)  -->
<!DOCTYPE svg PUBLIC "-//W3C//DTD SVG 1.1//EN" "http://www.w3.org/Graphics/SVG/1.1/DTD/svg11.dtd">
<svg version="1.1" id="Layer_1" xmlns="http://www.w3.org/2000/svg" xmlns:xlink="http://www.w3.org/1999/xlink" x="0px" y="0px"
	 width="500px" height="500px" viewBox="0 0 500 500" enable-background="new 0 0 500 500" xml:space="preserve">
<g>
	<path fill="#FFFFFF" d="M250.002,2.797C113.45,2.797,2.751,113.472,2.751,249.999c0,136.524,110.699,247.204,247.251,247.204
		c136.551,0,247.248-110.68,247.248-247.204C497.25,113.472,386.555,2.797,250.002,2.797z M250.001,477.189
		c-125.5,0-227.237-101.719-227.237-227.19c0-125.473,101.737-227.188,227.237-227.188c125.497,0,227.233,101.716,227.233,227.188
		C477.235,375.47,375.498,477.189,250.001,477.189z"/>
	<path fill="#989898" d="M250.001,22.81c-125.5,0-227.237,101.716-227.237,227.188s101.737,227.191,227.237,227.191
		c125.497,0,227.233-101.719,227.233-227.191S375.498,22.81,250.001,22.81z M350.467,245.868c17.555,0,31.785,14.231,31.785,31.782
		c0,17.549-14.23,31.781-31.785,31.781s-31.787-14.232-31.787-31.781C318.68,260.099,332.912,245.868,350.467,245.868z
		 M148.073,245.868c17.556,0,31.787,14.231,31.787,31.782c0,17.549-14.231,31.781-31.787,31.781
		c-17.555,0-31.787-14.232-31.787-31.781C116.286,260.099,130.519,245.868,148.073,245.868z M89.927,356.816
		c0-26.172,26.034-47.385,58.146-47.385c32.112,0,58.144,21.213,58.144,47.385H89.927z M192.353,204.216
		c0-26.172,26.031-47.386,58.146-47.386c-17.556,0-31.788-14.229-31.788-31.782c0-17.549,14.231-31.778,31.788-31.778
		c17.556,0,31.787,14.229,31.787,31.778c0,17.553-14.23,31.782-31.787,31.782c32.111,0,58.146,21.213,58.146,47.386H192.353z
		 M292.323,356.816c0-26.172,26.033-47.385,58.146-47.385c32.107,0,58.145,21.213,58.145,47.385H292.323z"/>
	<ellipse fill="#FFFFFF" cx="250.5" cy="125.048" rx="31.788" ry="31.778"/>
	<path fill="#FFFFFF" d="M250.5,156.83c-32.115,0-58.146,21.213-58.146,47.386h116.291C308.645,178.043,282.612,156.83,250.5,156.83
		z"/>
	<circle fill="#FFFFFF" cx="350.467" cy="277.65" r="31.781"/>
	<path fill="#FFFFFF" d="M350.469,309.431c-32.113,0-58.146,21.213-58.146,47.385h116.291
		C408.614,330.644,382.576,309.431,350.469,309.431z"/>
	<circle fill="#FFFFFF" cx="148.073" cy="277.65" r="31.781"/>
	<path fill="#FFFFFF" d="M148.074,309.431c-32.113,0-58.146,21.213-58.146,47.385h116.29
		C206.218,330.644,180.186,309.431,148.074,309.431z"/>
</g>
<path fill="none" stroke="#FFFFFF" stroke-width="5" stroke-linecap="round" stroke-miterlimit="10" d="M250.15,278.911
	l38.154,24.012 M250.04,279.063l-38.343,23.705 M250.049,233.321v45.59"/>
</svg>
