<?xml version="1.0" encoding="utf-8"?>
<!-- Generator: Adobe Illustrator 19.1.0, SVG Export Plug-In . SVG Version: 6.00 Build 0)  -->
<svg version="1.1" id="Layer_1" xmlns="http://www.w3.org/2000/svg" xmlns:xlink="http://www.w3.org/1999/xlink" x="0px" y="0px"
	 viewBox="-3.9 0 32 32" style="enable-background:new -3.9 0 32 32;" xml:space="preserve">
<path style="fill:#FFFFFF;" d="M28.1,16c0,8.9-7.2,16-16,16c-8.9,0-16-7.2-16-16s7.2-16,16-16C20.9,0,28.1,7.1,28.1,16"/>
<path style="fill:#EF4223;" d="M26.8,16c0,8.1-6.6,14.7-14.7,14.7S-2.7,24.1-2.7,16C-2.7,7.8,3.9,1.2,12,1.2S26.8,7.8,26.8,16"/>
<circle style="fill:none;stroke:#FFFFFF;stroke-width:0.2808;" cx="12" cy="16" r="14.7"/>
<path style="fill:#EF4223;" d="M18.3,23c-0.3,0.9-1.2,1.3-2.1,1l-7.1-2.5c-0.8-0.3-1.2-1.2-0.9-2.1L12,8.8c0.3-0.9,1.2-1.3,2.1-1
	l7.1,2.5c0.8,0.3,1.2,1.2,0.9,2.1L18.3,23z"/>
<path style="fill:none;stroke:#FFFFFF;stroke-width:1.1366;stroke-linejoin:round;stroke-miterlimit:10;" d="M18.3,23
	c-0.3,0.9-1.2,1.3-2.1,1l-7.1-2.5c-0.8-0.3-1.2-1.2-0.9-2.1L12,8.8c0.3-0.9,1.2-1.3,2.1-1l7.1,2.5c0.8,0.3,1.2,1.2,0.9,2.1L18.3,23z
	"/>
<path style="fill:none;stroke:#EF4223;stroke-width:2.7278;stroke-linejoin:round;stroke-miterlimit:10;" d="M16.7,19.6
	c0,0.9-0.7,1.7-1.6,1.7H7.6c-0.9,0-1.6-0.7-1.6-1.7V8.4c0-0.9,0.7-1.7,1.6-1.7h7.5c0.9,0,1.6,0.7,1.6,1.7V19.6z"/>
<path style="fill:#EF4223;" d="M16.7,19.6c0,0.9-0.7,1.7-1.6,1.7H7.6c-0.9,0-1.6-0.7-1.6-1.7V8.4c0-0.9,0.7-1.7,1.6-1.7h7.5
	c0.9,0,1.6,0.7,1.6,1.7V19.6z"/>
<path style="fill:none;stroke:#FFFFFF;stroke-width:1.1366;stroke-linejoin:round;stroke-miterlimit:10;" d="M16.7,19.6
	c0,0.9-0.7,1.7-1.6,1.7H7.6c-0.9,0-1.6-0.7-1.6-1.7V8.4c0-0.9,0.7-1.7,1.6-1.7h7.5c0.9,0,1.6,0.7,1.6,1.7V19.6z"/>
<path style="fill:none;stroke:#EF4223;stroke-width:2.7278;stroke-linejoin:round;stroke-miterlimit:10;" d="M16.5,19.7
	c0.4,0.8,0.1,1.8-0.7,2.2L9,25.1c-0.8,0.4-1.8,0-2.1-0.8L2,14.1c-0.4-0.8,0-1.8,0.8-2.2l6.7-3c0.8-0.4,1.9-0.2,2.3,0.6L16.5,19.7z"
	/>
<path style="fill:#EF4223;" d="M16.5,19.7c0.4,0.8,0.1,1.8-0.7,2.2L9,25.1c-0.8,0.4-1.8,0-2.1-0.8L2,14.1c-0.4-0.8,0-1.8,0.8-2.2
	l6.8-3.2c0.8-0.4,1.8,0,2.1,0.8L16.5,19.7z"/>
<path style="fill:none;stroke:#FFFFFF;stroke-width:1.1366;stroke-linejoin:round;stroke-miterlimit:10;" d="M16.5,19.7
	c0.4,0.8,0.1,1.8-0.7,2.2L9,25.1c-0.8,0.4-1.8,0-2.1-0.8L2,14.1c-0.4-0.8,0-1.8,0.8-2.2l6.8-3.2c0.8-0.4,1.8,0,2.1,0.8L16.5,19.7z"
	/>
<path style="fill:#FFFFFF;" d="M10.7,14.1C9.9,13.9,9,14.3,8.8,15l-0.2,0.5L8,15.4c-0.8-0.2-1.7,0.2-2,1c-0.3,0.8,0.1,1.7,1,2l3.4,1
	l1.3-3.3C12,15.2,11.6,14.3,10.7,14.1"/>
</svg>
