<?xml version="1.0" encoding="utf-8"?>
<!-- Generator: Adobe Illustrator 19.1.0, SVG Export Plug-In . SVG Version: 6.00 Build 0)  -->
<svg version="1.1" id="Layer_1" xmlns="http://www.w3.org/2000/svg" xmlns:xlink="http://www.w3.org/1999/xlink" x="0px" y="0px"
	 viewBox="2240 -2098.8 3992 4246.7" style="enable-background:new 2240 -2098.8 3992 4246.7;" xml:space="preserve">
<style type="text/css">
	.st0{fill:#808285;}
</style>
<path class="st0" d="M2960.7-1990.4C3105.3-1828.8,4619-264.1,4619-264.1C4695.5-187.6,4738-85.5,4738,25
	c0,102-42.5,204.1-119.1,280.6c0,0-1505.2,1564.7-1658.3,1726.3c-144.6,144.6-425.2,161.6-586.8,0c-178.6-161.6-178.6-382.7,0-586.8
	L3734.6,25L2382.4-1403.6c-178.6-204.1-178.6-425.2,0-586.8C2535.5-2135,2816.1-2135,2960.7-1990.4"/>
<path class="st0" d="M5511.3-1989.4c144.6-144.6,425.2-144.6,578.3,0c178.6,161.6,178.6,382.7,0,586.8L4737.4,26L6098,1446.2
	c178.6,204.1,178.6,425.2,0,586.8c-161.6,161.6-442.2,144.6-586.8,0C5358.2,1871.4,3853,306.7,3853,306.7
	c-76.5-76.5-119.1-178.6-119.1-280.6c0-110.6,42.5-212.6,119.1-289.1C3853-263.1,5366.7-1827.8,5511.3-1989.4"/>
</svg>
