<?xml version="1.0" encoding="utf-8"?>
<!-- Generator: Adobe Illustrator 15.0.2, SVG Export Plug-In . SVG Version: 6.00 Build 0)  -->
<!DOCTYPE svg PUBLIC "-//W3C//DTD SVG 1.1//EN" "http://www.w3.org/Graphics/SVG/1.1/DTD/svg11.dtd">
<svg version="1.1" id="Layer_1" xmlns="http://www.w3.org/2000/svg" xmlns:xlink="http://www.w3.org/1999/xlink" x="0px" y="0px"
	 width="212px" height="212px" viewBox="0 0 212 212" enable-background="new 0 0 212 212" xml:space="preserve">
<g>
	<path fill="#FFFFFF" d="M106.001,4.452C49.917,4.452,4.452,49.916,4.452,106c0,56.082,45.465,101.548,101.549,101.548
		S207.548,162.082,207.548,106C207.548,49.916,162.085,4.452,106.001,4.452z M106,200.068c-51.869,0-94.069-42.198-94.069-94.067
		S54.131,11.932,106,11.932c51.868,0,94.068,42.199,94.068,94.068S157.869,200.068,106,200.068z"/>
	<path fill="#EE4023" d="M106,13.413c-51.052,0-92.587,41.534-92.587,92.587c0,51.052,41.535,92.586,92.587,92.586
		c51.053,0,92.586-41.534,92.586-92.586C198.587,54.947,157.053,13.413,106,13.413z M148.462,151.42
		c-1.942,5.45-7.003,9.112-12.591,9.112c-1.443,0-2.87-0.248-4.236-0.735l-11.115-3.968l-30.668,14.532
		c-2.267,1.076-4.69,1.621-7.201,1.621c-6.741,0-13.008-4.033-15.966-10.275L36.19,97.355c-2-4.223-2.31-8.955-0.872-13.328
		c1.481-4.503,4.622-8.084,8.843-10.083l16.37-7.758V57.76c0-9.782,7.729-17.743,17.228-17.743h47.666
		c9.5,0,17.228,7.959,17.228,17.743v1.59l22.031,7.864c6.769,2.416,10.229,10.105,7.721,17.14L148.462,151.42z"/>
	<path fill="#FFFFFF" d="M106,11.932c-51.869,0-94.069,42.199-94.069,94.068S54.13,200.066,106,200.066
		c51.868,0,94.068-42.197,94.068-94.066S157.869,11.932,106,11.932z M106,198.586c-51.052,0-92.587-41.534-92.587-92.586
		c0-51.053,41.535-92.587,92.587-92.587c51.053,0,92.586,41.534,92.586,92.587C198.587,157.052,157.053,198.586,106,198.586z"/>
	<path fill="#EE4023" d="M142.443,131.593c0.426,2.761,0.207,5.587-0.68,8.278c-1.479,4.502-4.621,8.083-8.842,10.082l-4.742,2.247
		l5.471,1.952c0.718,0.257,1.463,0.387,2.222,0.387c3.058,0,5.851-2.062,6.942-5.133l23.943-67.067
		c1.399-3.922-0.436-8.175-4.09-9.479l-20.016-7.146v63.259C142.652,129.864,142.568,130.734,142.443,131.593z"/>
	<path fill="#FFFFFF" d="M164.686,67.213l-22.031-7.864v6.364l20.017,7.146c3.653,1.305,5.488,5.557,4.089,9.479l-23.941,67.068
		c-1.096,3.068-3.885,5.132-6.944,5.132c-0.756,0-1.503-0.13-2.22-0.386l-5.471-1.952l-7.66,3.63l11.115,3.968
		c1.363,0.487,2.789,0.735,4.234,0.735c5.589,0,10.646-3.662,12.592-9.112l23.941-67.066
		C174.914,77.318,171.452,69.63,164.686,67.213z"/>
	<path fill="#EE4023" d="M64.728,57.76c0-7.47,5.846-13.547,13.032-13.547h47.666c7.186,0,13.032,6.077,13.032,13.547v63.639
		l2.438,5.144c0.77,1.626,1.283,3.325,1.549,5.052c0.123-0.857,0.209-1.729,0.209-2.619V65.714V59.35v-1.59
		c0-9.782-7.727-17.743-17.227-17.743H77.76c-9.499,0-17.228,7.959-17.228,17.743v8.427l4.196-1.988V57.76z"/>
	<path fill="#EE4023" d="M132.464,57.76c0-4.164-3.157-7.553-7.038-7.553H77.76c-3.881,0-7.038,3.388-7.038,7.553v3.599
		l16.512-7.825c2.267-1.074,4.689-1.619,7.201-1.619c6.74,0,13.008,4.033,15.965,10.275l22.063,46.561V57.76z"/>
	<path fill="#FFFFFF" d="M138.458,57.76c0-7.47-5.847-13.547-13.032-13.547H77.76c-7.187,0-13.032,6.077-13.032,13.547v6.439
		l5.995-2.84V57.76c0-4.164,3.157-7.553,7.038-7.553h47.667c3.879,0,7.037,3.388,7.037,7.553v50.989l5.994,12.649L138.458,57.76
		L138.458,57.76z"/>
	<path fill="#EE4023" d="M128.182,152.2l4.741-2.248c4.222-1.999,7.361-5.58,8.843-10.082c0.887-2.69,1.104-5.519,0.68-8.279
		c-0.266-1.725-0.78-3.426-1.551-5.051l-2.437-5.144l-5.994-12.648L110.4,62.188c-2.959-6.241-9.228-10.275-15.967-10.275
		c-2.511,0-4.934,0.546-7.201,1.619L70.72,61.356l-5.995,2.841l-4.195,1.988l-16.371,7.758c-4.221,2-7.362,5.58-8.843,10.083
		c-1.439,4.373-1.13,9.105,0.872,13.328l30.495,64.352c2.958,6.242,9.225,10.276,15.966,10.276c2.51,0,4.934-0.547,7.201-1.621
		l30.669-14.533L128.182,152.2z M88.055,166.57c-1.702,0.808-3.52,1.217-5.404,1.217c-5.129,0-9.907-3.092-12.174-7.877
		L39.982,95.56c-1.538-3.246-1.778-6.875-0.677-10.221c1.119-3.4,3.481-6.1,6.653-7.603l43.073-20.412
		c1.701-0.807,3.52-1.215,5.404-1.215c5.128,0,9.906,3.091,12.174,7.875l30.496,64.354c1.535,3.245,1.776,6.874,0.676,10.219
		c-1.119,3.401-3.482,6.102-6.654,7.604L88.055,166.57z"/>
	<path fill="#EE4023" d="M128.561,140.743c1.672-0.792,2.926-2.233,3.524-4.058c0.618-1.879,0.478-3.933-0.399-5.781L101.19,66.553
		c-1.281-2.702-3.932-4.448-6.757-4.448c-0.99,0-1.943,0.215-2.837,0.638l-43.073,20.41c-1.674,0.793-2.925,2.234-3.526,4.059
		c-0.618,1.879-0.476,3.932,0.401,5.781l30.494,64.351c1.281,2.703,3.934,4.449,6.758,4.449c0.989,0,1.943-0.216,2.837-0.638
		L128.561,140.743z M80.73,102.218l3.313,1.005l1.33-3.27c1.83-4.725,7.37-7.426,12.3-6c5.538,1.635,8.319,7.337,6.238,12.789
		l-8.107,20.592l-21.219-6.29c-5.576-1.715-8.357-7.418-6.237-12.788C70.259,103.491,75.798,100.79,80.73,102.218z"/>
	<path fill="#FFFFFF" d="M131.126,146.161c3.172-1.504,5.535-4.203,6.653-7.603c1.103-3.348,0.861-6.977-0.676-10.221
		l-30.496-64.354c-2.268-4.784-7.045-7.876-12.173-7.876c-1.884,0-3.703,0.409-5.404,1.216L45.958,77.737
		c-3.172,1.502-5.535,4.202-6.653,7.603c-1.101,3.346-0.86,6.975,0.677,10.221l30.495,64.351c2.267,4.786,7.046,7.877,12.174,7.877
		c1.884,0,3.703-0.409,5.404-1.216L131.126,146.161z M75.893,157.344L45.399,92.992c-0.876-1.85-1.019-3.902-0.401-5.781
		c0.6-1.824,1.852-3.266,3.526-4.059l43.073-20.411c0.894-0.423,1.847-0.638,2.837-0.638c2.824,0,5.478,1.747,6.757,4.448
		l30.495,64.354c0.877,1.848,1.02,3.9,0.4,5.779c-0.602,1.825-1.854,3.267-3.525,4.058l-43.073,20.413
		c-0.893,0.423-1.847,0.638-2.837,0.638C79.827,161.793,77.174,160.046,75.893,157.344z"/>
	<path fill="#FFFFFF" d="M74.584,121.044l21.219,6.29l8.107-20.592c2.081-5.452-0.701-11.154-6.238-12.789
		c-4.931-1.426-10.47,1.275-12.3,6l-1.33,3.27l-3.313-1.005c-4.932-1.428-10.471,1.274-12.382,6.038
		C66.227,113.626,69.008,119.329,74.584,121.044z"/>
</g>
</svg>
